# xmcd
#
# Track frame offsets:
#	150
#	16450
#	25500
#	43928
#	56459
#	66465
#	82154
#	94585
#	105125
#	113792
#	127902
#	138778
#
# Disc length: 1988 seconds
#
# Revision: 1
# Processed by: cddbd v1.5.2PL0 Copyright (c) Steve Scherf et al.
# Submitted via: audiograbber 1.83.01
#
DISCID=9307c20c
DTITLE=Little Creek - Blood, Sweat and Tears
DYEAR=1998
DGENRE=Country
TTITLE0=Dads Old  Mandolin
TTITLE1=River of Darkness
TTITLE2=Blood, Sweat and Tears
TTITLE3=Crossfire
TTITLE4=Watch Over Me
TTITLE5=Messing With My Friend
TTITLE6=Cherokee Run
TTITLE7=Everything Has Changed
TTITLE8=Love Please Come Back
TTITLE9=I'm Still Loving You
TTITLE10=Little Creek
TTITLE11=It Could Have Been Me
EXTD=
EXTT0=
EXTT1=
EXTT2=
EXTT3=
EXTT4=
EXTT5=
EXTT6=
EXTT7=
EXTT8=
EXTT9=
EXTT10=
EXTT11=
PLAYORDER=
